<svg viewBox="0 0 12.5 12.5" version="1.1" xmlns="http://www.w3.org/2000/svg" xmlns:xlink="http://www.w3.org/1999/xlink" xml:space="preserve" xmlns:serif="http://www.serif.com/" style="fill-rule:evenodd;clip-rule:evenodd;stroke-linejoin:round;stroke-miterlimit:2;" class="w-[80px] text-stone-200" animate-on-hover=""><g style="transform:translateX(0.5px) translateY(0.4px);"><g><path d="M9.835,7.188c-0.061,0.418 -0.179,0.829 -0.354,1.217c-1.381,3.111 -5.571,3.751 -7.831,1.171c-2.25,-2.589 -1.07,-6.632 2.205,-7.611c0.642,-0.194 1.318,-0.237 1.975,-0.145l0.248,-0.422c0.055,-0.101 0.201,-0.174 0.201,-0.174c0.425,-0.01 0.796,0.068 1.111,0.186c0.333,-0.36 1.019,-1.062 1.305,-1.055c0.384,0.009 0.484,0.631 0.64,0.668c0.11,0.036 0.22,-0 0.293,-0.083l0.192,0.265c-0,0 -0.165,0.247 -0.421,0.22c-0.476,-0.046 -0.403,-0.549 -0.723,-0.613c-0.209,-0.043 -0.61,0.466 -0.849,0.803c0.531,0.303 0.813,0.67 0.813,0.67c0.128,0.165 0.091,0.348 0.091,0.348l-0.236,0.494c0.082,0.082 0.161,0.167 0.236,0.256l-0,-0c0.105,0.121 0.204,0.248 0.297,0.379c0.206,0.289 0.376,0.601 0.509,0.928c0.321,0.778 0.439,1.643 0.298,2.498Z" style="fill:none;stroke:#fafafa;stroke-width:1.5px;"></path><path d="M7.222,1.617c0.036,0.083 0.1,0.147 0.164,0.201c0.073,0.046 0.165,0.074 0.247,0.083c0,-0 0.732,-1.153 1.043,-1.089c0.32,0.064 0.247,0.567 0.723,0.613c0.256,0.027 0.421,-0.22 0.421,-0.22l-0.192,-0.265c-0.073,0.083 -0.183,0.119 -0.293,0.083c-0.156,-0.037 -0.256,-0.659 -0.64,-0.668c-0.385,-0.009 -1.492,1.262 -1.492,1.262l0.019,0Z" style="fill-rule:nonzero;"></path><path d="M8.438,3.246l0.293,-0.613c0,-0 0.037,-0.183 -0.091,-0.348c-0,0 -0.842,-1.098 -2.361,-1.061c0,-0 -0.146,0.073 -0.201,0.174l-0.366,0.622c0,-0 1.647,0.082 2.726,1.226Z" style="fill-rule:nonzero;stroke:#000;stroke-width:0.18px;stroke-linejoin:miter;stroke-miterlimit:10;"></path><path d="M1.341,4.852c0.731,-2.263 3.142,-3.513 5.381,-2.79c2.239,0.724 3.463,3.148 2.732,5.411c-0.731,2.263 -3.142,3.513 -5.381,2.79c-2.239,-0.723 -3.463,-3.148 -2.732,-5.411Z" style="fill:#d65f33;"></path><path d="M6.718,2.056c2.242,0.686 3.632,3.193 3.038,5.508c-0.43,1.839 -2.077,3.312 -3.971,3.495c-1.281,0.137 -2.625,-0.284 -3.577,-1.153c-1.436,-1.254 -1.912,-3.422 -1.18,-5.16c0.869,-2.223 3.467,-3.44 5.69,-2.69Zm0,0c-2.223,-0.704 -4.556,0.622 -5.077,2.891c-0.485,1.986 0.714,4.108 2.626,4.703c1.893,0.64 4.107,-0.375 4.885,-2.278c0.897,-2.141 -0.22,-4.584 -2.434,-5.316Z" style="fill-rule:nonzero;"></path><path d="M8.722,3.383c1.208,1.336 1.5,3.376 0.759,5.022c-1.381,3.111 -5.571,3.751 -7.831,1.171c-2.25,-2.589 -1.07,-6.632 2.205,-7.611c1.729,-0.522 3.705,0.046 4.876,1.418l-0.009,-0Zm-0.037,0.027c-1.152,-1.335 -3.119,-1.866 -4.784,-1.281c-2.983,1.016 -3.989,4.767 -1.903,7.146c2.077,2.378 5.928,1.875 7.328,-0.952c0.805,-1.573 0.54,-3.595 -0.631,-4.913l-0.01,0Z" style="fill-rule:nonzero;"></path><path d="M7.405,3.758c0.228,-0.348 0.686,-0.275 1.015,0.155c0.329,0.43 0.421,1.071 0.192,1.419c-0.228,0.347 -0.686,0.274 -1.015,-0.156c-0.33,-0.43 -0.421,-1.07 -0.192,-1.418Z" style="fill:#ecd5cd;fill-rule:nonzero;"></path><path d="M8.722,6.503c-0.073,0.155 -0.21,0.118 -0.311,-0.074c-0.101,-0.192 -0.128,-0.466 -0.055,-0.622c0.073,-0.155 0.21,-0.119 0.311,0.073c0.101,0.193 0.128,0.476 0.055,0.623Z" style="fill:#ecd5cd;fill-rule:nonzero;"></path></g><!----></g></svg>