<svg
	xmlns="http://www.w3.org/2000/svg"
	xmlns:xlink="http://www.w3.org/1999/xlink"
	viewBox="0 0 50 50"
	fill="#FFFFFF"
>
	<path
		d="M25 2C12.311335 2 2 12.311335 2 25C2 37.688665 12.311335 48 25 48C37.688665 48 48 37.688665 48 25C48 12.311335 37.688665 2 25 2 z M 25 4C36.607335 4 46 13.392665 46 25C46 25.071371 45.994849 25.141688 45.994141 25.212891C45.354527 25.153853 44.615508 25.097776 43.675781 25.064453C42.347063 25.017336 40.672259 25.030987 38.773438 25.125C38.843852 24.634651 38.893205 24.137377 38.894531 23.626953C38.991361 21.754332 38.362521 20.002464 37.339844 18.455078C37.586913 17.601352 37.876747 16.515218 37.949219 15.283203C38.031819 13.878925 37.910599 12.321765 36.783203 11.269531L36.494141 11L36.099609 11C33.416539 11 31.580023 12.12321 30.457031 13.013672C28.835529 12.386022 27.01222 12 25 12C22.976367 12 21.135525 12.391416 19.447266 13.017578C18.324911 12.126691 16.486785 11 13.800781 11L13.408203 11L13.119141 11.267578C12.020956 12.287321 11.919778 13.801759 11.988281 15.199219C12.048691 16.431506 12.321732 17.552142 12.564453 18.447266C11.524489 20.02486 10.900391 21.822018 10.900391 23.599609C10.900391 24.111237 10.947969 24.610071 11.017578 25.101562C9.2118173 25.017808 7.6020996 25.001668 6.3242188 25.046875C5.3845143 25.080118 4.6454422 25.135713 4.0058594 25.195312C4.0052628 25.129972 4 25.065482 4 25C4 13.392665 13.392665 4 25 4 z M 14.396484 13.130859C16.414067 13.322043 17.931995 14.222972 18.634766 14.847656L19.103516 15.261719L19.681641 15.025391C21.263092 14.374205 23.026984 14 25 14C26.973016 14 28.737393 14.376076 30.199219 15.015625L30.785156 15.273438L31.263672 14.847656C31.966683 14.222758 33.487184 13.321554 35.505859 13.130859C35.774256 13.575841 36.007486 14.208668 35.951172 15.166016C35.883772 16.311737 35.577304 17.559658 35.345703 18.300781L35.195312 18.783203L35.494141 19.191406C36.483616 20.540691 36.988121 22.000937 36.902344 23.544922L36.900391 23.572266L36.900391 23.599609C36.900391 26.095064 36.00178 28.092339 34.087891 29.572266C32.174048 31.052199 29.152663 32 24.900391 32C20.648118 32 17.624827 31.052192 15.710938 29.572266C13.797047 28.092339 12.900391 26.095064 12.900391 23.599609C12.900391 22.134903 13.429308 20.523599 14.40625 19.191406L14.699219 18.792969L14.558594 18.318359C14.326866 17.530484 14.042825 16.254103 13.986328 15.101562C13.939338 14.14294 14.166221 13.537027 14.396484 13.130859 z M 8.8847656 26.021484C9.5914575 26.03051 10.40146 26.068656 11.212891 26.109375C11.290419 26.421172 11.378822 26.727898 11.486328 27.027344C8.178972 27.097092 5.7047309 27.429674 4.1796875 27.714844C4.1152068 27.214494 4.0638483 26.710021 4.0351562 26.199219C5.1622058 26.092262 6.7509972 25.994233 8.8847656 26.021484 z M 41.115234 26.037109C43.247527 26.010033 44.835728 26.108156 45.962891 26.214844C45.934234 26.718328 45.883749 27.215664 45.820312 27.708984C44.24077 27.41921 41.699674 27.086688 38.306641 27.033203C38.411945 26.739677 38.499627 26.438219 38.576172 26.132812C39.471291 26.084833 40.344564 26.046896 41.115234 26.037109 z M 11.912109 28.019531C12.508849 29.215327 13.361516 30.283019 14.488281 31.154297C16.028825 32.345531 18.031623 33.177838 20.476562 33.623047C20.156699 33.951698 19.86578 34.312595 19.607422 34.693359L19.546875 34.640625C19.552375 34.634325 19.04975 34.885878 18.298828 34.953125C17.547906 35.020374 16.621615 35 15.800781 35C14.575781 35 14.03621 34.42121 13.173828 33.367188C12.696283 32.72356 12.114101 32.202331 11.548828 31.806641C10.970021 31.401475 10.476259 31.115509 9.8652344 31.013672L9.7832031 31L9.6992188 31C9.2325521 31 8.7809835 31.03379 8.359375 31.515625C8.1485707 31.756544 8.003277 32.202561 8.0976562 32.580078C8.1920352 32.957595 8.4308563 33.189581 8.6445312 33.332031C10.011254 34.24318 10.252795 36.046511 11.109375 37.650391C11.909298 39.244315 13.635662 40 15.400391 40L18 40L18 44.802734C10.967811 42.320535 5.6646795 36.204613 4.3320312 28.703125C5.8629338 28.414776 8.4265387 28.068108 11.912109 28.019531 z M 37.882812 28.027344C41.445538 28.05784 44.08105 28.404061 45.669922 28.697266C44.339047 36.201504 39.034072 42.31987 32 44.802734L32 39.599609C32 38.015041 31.479642 36.267712 30.574219 34.810547C30.299322 34.368135 29.975945 33.949736 29.615234 33.574219C31.930453 33.11684 33.832364 32.298821 35.3125 31.154297C36.436824 30.284907 37.287588 29.220424 37.882812 28.027344 z M 23.699219 34.099609L26.5 34.099609C27.312821 34.099609 28.180423 34.7474 28.875 35.865234C29.569577 36.983069 30 38.484177 30 39.599609L30 45.398438C28.397408 45.789234 26.72379 46 25 46C23.27621 46 21.602592 45.789234 20 45.398438L20 39.599609C20 38.508869 20.467828 37.011307 21.208984 35.888672C21.950141 34.766037 22.886398 34.099609 23.699219 34.099609 z M 12.308594 35.28125C13.174368 36.179258 14.222525 37 15.800781 37C16.579948 37 17.552484 37.028073 18.476562 36.945312C18.479848 36.945018 18.483042 36.943654 18.486328 36.943359C18.36458 37.293361 18.273744 37.645529 18.197266 38L15.400391 38C14.167057 38 13.29577 37.55443 12.894531 36.751953L12.886719 36.738281L12.880859 36.726562C12.716457 36.421191 12.500645 35.81059 12.308594 35.28125 z"
		fill="#000"
	/>
</svg>
