<svg width="40" height="40" viewBox="0 0 40 40" fill="none" xmlns="http://www.w3.org/2000/svg">
    <g filter="url(#filter0_iii_5326_1985)">
        <rect width="40" height="40" rx="8" fill="#002173"/>
        <rect x="0.5" y="0.5" width="39" height="39" rx="7.5" stroke="url(#paint0_linear_5326_1985)"/>
        <path d="M32.9876 33.895C32.5981 34.2756 31.3071 33.5145 30.8619 33.3079C24.4849 30.3071 18.2303 27.0561 11.8644 24.0444C11.5973 23.903 11.3748 23.6421 11.4193 23.3268C13.7453 18.3797 16.049 13.4 18.4084 8.46382C18.6866 7.8767 19.2208 6.21317 19.8329 6.02834C20.1223 5.94136 20.3449 6.06096 20.5007 6.30016L22.9157 11.3342C23.1383 12.0736 22.8155 12.2149 22.5707 12.7694C21.391 15.368 20.1779 17.9557 18.9426 20.5216C18.8424 20.8043 18.8869 21.1414 19.1874 21.2936L30.0495 26.6321C31.2403 28.7849 32.2753 31.079 33.1768 33.3623C33.1768 33.4601 33.0543 33.8189 32.9987 33.8842L32.9876 33.895Z" fill="white"/>
        <path d="M17.7628 27.7302C17.9631 28.0347 18.0633 28.3717 17.785 28.6653L7.88009 33.7754C6.56685 34.0907 6.72266 33.2644 7.05653 32.3837C7.88009 30.2309 9.38253 27.154 10.4843 25.099C10.6624 24.762 10.718 24.5554 11.1855 24.5554C13.4447 25.4361 15.5703 26.6756 17.7628 27.7302Z" fill="white"/>
        <path d="M23.127 13.9654C23.4386 13.7697 23.7725 13.6718 24.0841 13.9328L29.3593 23.5877C29.6932 24.8707 28.8474 24.7294 27.9459 24.4032C25.7423 23.6095 22.5816 22.1525 20.4782 21.087C20.1332 20.913 19.9218 20.8696 19.9106 20.402C20.801 18.184 22.0586 16.1073 23.127 13.9654Z" fill="white"/>
    </g>
    <defs>
        <filter id="filter0_iii_5326_1985" x="0" y="-3" width="40" height="46" filterUnits="userSpaceOnUse" color-interpolation-filters="sRGB">
            <feFlood flood-opacity="0" result="BackgroundImageFix"/>
            <feBlend mode="normal" in="SourceGraphic" in2="BackgroundImageFix" result="shape"/>
            <feColorMatrix in="SourceAlpha" type="matrix" values="0 0 0 0 0 0 0 0 0 0 0 0 0 0 0 0 0 0 127 0" result="hardAlpha"/>
            <feOffset dy="-3"/>
            <feGaussianBlur stdDeviation="1.5"/>
            <feComposite in2="hardAlpha" operator="arithmetic" k2="-1" k3="1"/>
            <feColorMatrix type="matrix" values="0 0 0 0 0 0 0 0 0 0 0 0 0 0 0 0 0 0 0.1 0"/>
            <feBlend mode="normal" in2="shape" result="effect1_innerShadow_5326_1985"/>
            <feColorMatrix in="SourceAlpha" type="matrix" values="0 0 0 0 0 0 0 0 0 0 0 0 0 0 0 0 0 0 127 0" result="hardAlpha"/>
            <feOffset dy="3"/>
            <feGaussianBlur stdDeviation="1.5"/>
            <feComposite in2="hardAlpha" operator="arithmetic" k2="-1" k3="1"/>
            <feColorMatrix type="matrix" values="0 0 0 0 1 0 0 0 0 1 0 0 0 0 1 0 0 0 0.1 0"/>
            <feBlend mode="normal" in2="effect1_innerShadow_5326_1985" result="effect2_innerShadow_5326_1985"/>
            <feColorMatrix in="SourceAlpha" type="matrix" values="0 0 0 0 0 0 0 0 0 0 0 0 0 0 0 0 0 0 127 0" result="hardAlpha"/>
            <feMorphology radius="1" operator="erode" in="SourceAlpha" result="effect3_innerShadow_5326_1985"/>
            <feOffset/>
            <feComposite in2="hardAlpha" operator="arithmetic" k2="-1" k3="1"/>
            <feColorMatrix type="matrix" values="0 0 0 0 0.0627451 0 0 0 0 0.0941176 0 0 0 0 0.156863 0 0 0 0.24 0"/>
            <feBlend mode="normal" in2="effect2_innerShadow_5326_1985" result="effect3_innerShadow_5326_1985"/>
        </filter>
        <linearGradient id="paint0_linear_5326_1985" x1="20" y1="0" x2="20" y2="40" gradientUnits="userSpaceOnUse">
            <stop stop-color="white" stop-opacity="0.16"/>
            <stop offset="1" stop-color="white" stop-opacity="0"/>
        </linearGradient>
    </defs>
</svg>
