<svg width="800" height="351" viewBox="0 0 800 351" fill="none" xmlns="http://www.w3.org/2000/svg">
    <path fill-rule="evenodd" clip-rule="evenodd" d="M541.927 0.40541C549.911 2.30142 554.846 10.3109 552.95 18.295C549.408 33.2125 545.84 47.275 542.25 60.5317L572.089 56.0234C580.203 54.7975 587.774 60.3814 589 68.4955C590.226 76.6095 584.642 84.1811 576.528 85.407L533.255 91.9451C529.379 104.727 525.482 116.635 521.568 127.728C521.482 128.018 521.386 128.308 521.281 128.597C512.938 151.524 505.858 181.82 503.858 205.939C502.841 218.202 503.263 227.525 504.719 233.203C504.884 233.846 505.047 234.38 505.198 234.817C509.567 234.129 514.139 231.693 519.227 226.593C525.552 220.255 531.689 210.727 537.776 198.574C543.804 186.541 549.34 172.854 554.835 158.721C555.929 155.909 557.024 153.069 558.122 150.224L558.127 150.209L558.135 150.188L558.144 150.167L558.16 150.125C562.469 138.952 566.816 127.684 571.233 117.569C572.792 114.001 575.69 111.186 579.303 109.732C588.355 106.089 600.84 104.828 612.758 109.416C625.473 114.31 635.808 125.204 640.393 142.407C643.085 152.506 641.433 164.771 639.603 174.7C638.617 180.052 637.398 185.557 636.221 190.789L635.969 191.905L635.768 192.798L635.762 192.823C634.73 197.398 633.753 201.731 632.921 205.88C631.547 212.727 630.894 217.683 630.778 221.032C636.839 219.801 642.679 215.214 649.151 204.924C655.469 194.879 660.687 182.179 666.575 167.846C667.562 165.444 668.568 162.996 669.601 160.506C673.793 150.406 678.467 139.553 684.149 129.553C684.276 129.317 684.408 129.086 684.546 128.859C687.948 122.944 691.71 117.343 695.943 112.392C708.229 98.0173 725.225 88.3352 748.243 91.4346C770.418 94.4205 785.52 107.067 793.388 124.089C800.913 140.368 801.483 159.701 797.763 177.345C794.024 195.083 785.626 212.738 773.191 225.954C760.629 239.304 743.239 248.729 722.498 247.366C699.593 245.861 686.507 228.639 680.08 210.587C678.242 214.127 676.323 217.539 674.306 220.746C665.191 235.237 651.878 249.141 631.399 250.921C625.376 251.812 618.393 251.376 612.227 247.225C605.778 242.884 603.049 236.387 601.927 231.12C599.885 221.528 601.863 209.611 603.784 200.035C604.692 195.51 605.755 190.797 606.779 186.258L606.826 186.052L606.839 185.995C606.969 185.415 607.1 184.838 607.229 184.265C608.407 179.027 609.509 174.033 610.378 169.316C612.259 159.108 612.452 152.961 611.679 150.06C609.333 141.261 605.177 138.341 602.082 137.149C600.022 136.356 597.751 136.09 595.603 136.203C592.449 143.812 589.304 151.963 586.017 160.483L586.016 160.485L586.013 160.493C584.872 163.45 583.714 166.452 582.532 169.49C577.014 183.683 571.05 198.501 564.347 211.883C557.703 225.147 549.878 237.948 540.263 247.584C530.47 257.399 517.945 264.744 502.497 264.744C494.909 264.744 488.45 261.521 483.809 256.353C479.586 251.65 477.284 245.85 475.934 240.586C474.794 236.143 474.118 231.209 473.801 225.987C448.586 260.959 423.191 273.286 399.638 277.473C398.871 277.609 398.108 277.684 397.353 277.701C389.821 278.504 382.419 277.655 375.744 276.118C362.415 273.047 349.649 266.647 340.212 261.147C325.46 277.127 307.87 288.706 286.381 288.706C278.771 288.706 271.408 286.179 265.887 280.259C260.775 274.777 258.709 267.936 257.899 262.025C256.317 250.487 258.734 236.372 262.017 223.251C267.134 202.8 275.873 179.384 282.393 161.917C284.375 156.605 286.152 151.844 287.56 147.883C290.308 140.15 298.804 136.109 306.536 138.857C314.268 141.605 318.309 150.101 315.561 157.834C313.879 162.569 311.887 167.908 309.749 173.641C303.297 190.941 295.51 211.82 290.845 230.465C287.686 243.089 286.584 252.469 287.341 257.989C287.392 258.365 287.448 258.689 287.504 258.966C299.22 258.487 311.474 250.496 325.359 232.733C325.428 232.643 325.497 232.554 325.567 232.467C327.528 229.948 329.521 227.235 331.549 224.321C346.126 203.382 359.99 175.884 375.209 145.698C377.238 141.675 379.29 137.604 381.371 133.495C383.495 129.303 387.476 126.362 392.107 125.565C396.739 124.768 401.474 126.21 404.876 129.451C433.092 156.336 443.907 189.542 443.344 216.868C446.347 213.222 449.399 209.155 452.495 204.615C467.867 182.077 484.158 148.119 500.588 96.8807L464.898 102.273C456.784 103.499 449.213 97.915 447.987 89.8009C446.761 81.6868 452.345 74.1152 460.459 72.8893L510.067 65.3941C514.731 48.9288 519.393 30.9849 524.037 11.4289C525.933 3.44479 533.943 -1.4906 541.927 0.40541ZM157.924 67.2262C123.976 69.4986 90.7192 91.5739 81.0847 124.451C78.7769 132.326 70.5222 136.839 62.6472 134.531C54.7722 132.223 50.2591 123.969 52.5668 116.094C66.4055 68.8707 112.237 40.5008 155.94 37.5755C178.124 36.0905 200.903 41.0177 219.663 54.3261C238.648 67.7939 252.322 89.0112 257.363 117.701C263.565 152.996 262.119 209.864 240.691 258.611C229.883 283.199 213.748 306.252 190.405 323.16C166.925 340.166 137.013 350.322 99.8634 350.322C72.73 350.322 51.34 344.682 35.2175 334.448C18.9217 324.104 9.03903 309.709 4.06882 294.253C-5.54163 264.368 3.15684 230.739 16.7827 211.646C31.2207 191.416 56.4948 179.858 82.8208 182.168C87.4406 182.574 92.0507 183.398 96.6098 184.653C100.377 171.529 104.595 156.183 108.06 143.4C110.086 135.927 111.848 129.355 113.104 124.652C113.731 122.301 114.232 120.418 114.576 119.123C114.747 118.476 114.88 117.976 114.969 117.639L115.071 117.256L115.096 117.16L115.102 117.136L115.104 117.13L115.104 117.129C115.104 117.129 115.104 117.129 129.47 120.925C143.835 124.72 143.835 124.721 143.835 124.721L143.835 124.723L143.833 124.73L143.826 124.755L143.8 124.856L143.696 125.246C143.605 125.589 143.471 126.095 143.298 126.748C142.951 128.055 142.447 129.951 141.815 132.317C140.552 137.048 138.78 143.658 136.742 151.175C132.82 165.644 127.888 183.567 123.705 197.932C135.269 206.435 145.795 218.415 154.41 234.113C158.358 241.307 155.726 250.339 148.532 254.287C141.338 258.235 132.306 255.604 128.358 248.41C124.024 240.512 119.27 234.129 114.307 229.037C112.186 235.889 110.073 242.634 108.142 248.762C105.74 256.383 103.611 263.073 102.082 267.859C101.317 270.252 100.703 272.169 100.279 273.489L100.092 274.072C99.9678 274.457 99.8669 274.771 99.7908 275.007L99.6637 275.402L99.6311 275.503L99.6227 275.529L99.6205 275.536L99.6199 275.538C99.6199 275.538 99.6197 275.539 85.478 270.979C71.3362 266.42 71.3363 266.419 71.3363 266.419L71.3367 266.418L71.3386 266.412L71.3464 266.388L71.3777 266.291L71.5021 265.904C71.6119 265.563 71.7743 265.058 71.9843 264.404C72.4044 263.096 73.0148 261.192 73.7747 258.814C75.2948 254.057 77.4119 247.405 79.7995 239.829C82.3968 231.588 85.3047 222.283 88.1084 213.148C85.4274 212.445 82.7885 211.997 80.2228 211.772C63.9622 210.345 49.0554 217.582 40.9715 228.909C32.0754 241.374 25.9864 265.338 32.3592 285.156C35.3806 294.552 41.1823 303.036 51.1431 309.358C61.2772 315.791 76.716 320.605 99.8634 320.605C131.302 320.605 154.992 312.116 172.973 299.092C191.091 285.97 204.274 267.608 213.486 246.652C232.097 204.313 233.496 153.586 228.094 122.844C224.272 101.088 214.46 87.0701 202.469 78.5639C190.253 69.8981 174.566 66.1123 157.924 67.2262ZM85.478 270.979L99.6199 275.538C97.1018 283.348 88.7288 287.639 80.9185 285.121C73.1083 282.603 68.8182 274.23 71.3363 266.419L85.478 270.979ZM129.47 120.925L115.104 117.129C117.201 109.195 125.332 104.463 133.266 106.559C141.2 108.655 145.932 116.787 143.835 124.721L129.47 120.925ZM710.485 143.347C704.239 157.263 702.446 177.051 706.028 193.426C709.85 210.9 717.554 217.26 724.446 217.713C734.287 218.359 743.51 214.133 751.548 205.59C759.712 196.912 765.899 184.432 768.685 171.215C771.492 157.903 770.527 145.458 766.413 136.558C762.642 128.399 755.999 122.464 744.278 120.886C733.4 119.421 725.802 123.195 718.532 131.7C715.685 135.031 713.033 138.94 710.485 143.347ZM298.882 110.001C298.882 118.384 305.679 125.18 314.062 125.18C322.445 125.18 329.241 118.384 329.241 110.001C329.241 101.618 322.445 94.8214 314.062 94.8214C305.679 94.8214 298.882 101.618 298.882 110.001ZM358.597 237.406C365.821 241.394 374.203 245.267 382.416 247.159C389.311 248.748 394.727 248.602 398.748 247.125C402.281 245.828 406.314 242.949 409.775 235.494C415.966 222.16 416.451 193.548 397.897 166.714C385.008 192.245 372.136 217.193 358.597 237.406Z" fill="white"/>
</svg>
