<svg width="876" height="384" viewBox="0 0 876 384" fill="none" xmlns="http://www.w3.org/2000/svg">
    <path fill-rule="evenodd" clip-rule="evenodd" d="M593.112 1.18624C601.837 3.25838 607.231 12.0119 605.159 20.7377C601.287 37.041 597.388 52.4098 593.464 66.898L626.075 61.9709C634.943 60.6311 643.218 66.7338 644.558 75.6016C645.898 84.4694 639.795 92.7444 630.927 94.0842L583.634 101.23C579.398 115.199 575.139 128.213 570.862 140.336C570.767 140.654 570.663 140.971 570.548 141.287C561.43 166.343 553.692 199.454 551.507 225.813C550.395 239.215 550.856 249.405 552.447 255.609C552.628 256.313 552.806 256.896 552.97 257.374C557.745 256.622 562.742 253.959 568.303 248.386C575.215 241.459 581.923 231.046 588.576 217.764C595.163 204.613 601.213 189.655 607.219 174.208C608.414 171.135 609.611 168.032 610.811 164.922L610.817 164.907L610.826 164.883L610.835 164.86L610.853 164.814C615.562 152.604 620.313 140.288 625.141 129.234C626.844 125.334 630.011 122.258 633.96 120.669C643.853 116.688 657.498 115.31 670.523 120.323C684.419 125.673 695.714 137.578 700.725 156.379C703.667 167.417 701.861 180.821 699.862 191.672C698.784 197.521 697.452 203.538 696.165 209.256L695.89 210.476L695.67 211.451L695.664 211.479C694.536 216.478 693.468 221.214 692.559 225.749C691.057 233.232 690.344 238.648 690.217 242.309C696.841 240.962 703.223 235.95 710.296 224.704C717.202 213.725 722.904 199.845 729.34 184.182C730.418 181.556 731.517 178.881 732.646 176.16C737.227 165.121 742.336 153.26 748.545 142.331C748.684 142.073 748.829 141.82 748.979 141.573C752.698 135.108 756.81 128.987 761.435 123.576C774.863 107.866 793.438 97.2843 818.594 100.672C842.829 103.935 859.333 117.757 867.932 136.359C876.157 154.151 876.779 175.28 872.714 194.563C868.628 213.949 859.449 233.243 845.859 247.687C832.131 262.277 813.125 272.578 790.457 271.089C765.425 269.444 751.123 250.622 744.098 230.893C742.09 234.762 739.993 238.491 737.788 241.996C727.827 257.833 713.277 273.028 690.896 274.974C684.313 275.948 676.681 275.471 669.942 270.934C662.894 266.19 659.911 259.09 658.686 253.333C656.453 242.85 658.616 229.826 660.715 219.361C661.707 214.416 662.869 209.264 663.989 204.303L664.039 204.078L664.053 204.016C664.196 203.382 664.339 202.752 664.48 202.125C665.768 196.401 666.972 190.943 667.922 185.788C669.977 174.632 670.188 167.914 669.343 164.743C666.78 155.127 662.238 151.935 658.855 150.633C656.604 149.766 654.122 149.475 651.774 149.599C648.327 157.915 644.89 166.823 641.297 176.135L641.297 176.136L641.293 176.145C640.046 179.377 638.781 182.657 637.489 185.978C631.458 201.489 624.94 217.684 617.614 232.31C610.353 246.806 601.802 260.795 591.294 271.326C580.59 282.053 566.902 290.081 550.019 290.081C541.726 290.081 534.667 286.559 529.595 280.91C524.98 275.771 522.464 269.432 520.988 263.679C519.743 258.823 519.004 253.431 518.658 247.723C491.1 285.944 463.346 299.416 437.604 303.992C436.767 304.141 435.933 304.223 435.108 304.241C426.876 305.119 418.786 304.192 411.491 302.511C396.924 299.155 382.972 292.161 372.658 286.15C356.536 303.615 337.312 316.269 313.827 316.269C305.509 316.269 297.462 313.507 291.429 307.037C285.842 301.046 283.584 293.57 282.699 287.11C280.97 274.5 283.611 259.073 287.199 244.734C292.791 222.383 302.343 196.792 309.468 177.701C311.634 171.896 313.576 166.692 315.115 162.363C318.118 153.913 327.403 149.497 335.854 152.5C344.305 155.503 348.721 164.788 345.718 173.239C343.878 178.414 341.702 184.25 339.366 190.515C332.314 209.422 323.804 232.241 318.705 252.617C315.253 266.414 314.048 276.665 314.875 282.698C314.932 283.109 314.993 283.463 315.054 283.766C327.859 283.243 341.251 274.509 356.426 255.096C356.501 254.998 356.576 254.901 356.653 254.805C358.796 252.053 360.974 249.088 363.19 245.903C379.122 223.019 394.274 192.966 410.907 159.976C413.123 155.579 415.367 151.13 417.641 146.639C419.962 142.058 424.313 138.844 429.375 137.973C434.436 137.102 439.611 138.677 443.33 142.22C474.166 171.602 485.986 207.893 485.371 237.758C488.653 233.773 491.988 229.328 495.372 224.366C512.172 199.734 529.976 162.622 547.932 106.624L508.928 112.517C500.06 113.857 491.785 107.754 490.445 98.8862C489.105 90.0184 495.208 81.7434 504.076 80.4036L558.292 72.2121C563.389 54.2172 568.485 34.6064 573.56 13.2338C575.632 4.50796 584.386 -0.885909 593.112 1.18624ZM173.437 74.2145C136.335 76.698 99.9885 100.824 89.4589 136.755C86.9368 145.361 77.9152 150.294 69.3087 147.772C60.7021 145.25 55.7698 136.228 58.2919 127.621C73.4161 76.0117 123.505 45.0063 171.268 41.8093C195.513 40.1864 220.408 45.5713 240.911 60.1159C261.66 74.8349 276.604 98.0232 282.113 129.378C288.891 167.952 287.311 230.103 263.892 283.378C252.08 310.25 234.446 335.445 208.935 353.923C183.274 372.509 150.582 383.608 109.982 383.608C80.3282 383.608 56.9511 377.445 39.3309 366.26C21.5212 354.955 10.7205 339.223 5.2886 322.332C-5.21463 289.67 4.29189 252.917 19.1835 232.051C34.9628 209.941 62.5848 197.309 91.3563 199.834C96.4053 200.277 101.444 201.178 106.426 202.55C110.544 188.206 115.153 171.435 118.94 157.464C121.154 149.297 123.08 142.115 124.452 136.975C125.138 134.406 125.686 132.347 126.061 130.933C126.249 130.225 126.394 129.679 126.491 129.31L126.602 128.892L126.63 128.787L126.637 128.761L126.638 128.755L126.639 128.753C126.639 128.753 126.639 128.753 142.339 132.901C158.039 137.05 158.039 137.05 158.039 137.05L158.038 137.052L158.036 137.06L158.029 137.088L158 137.197L157.887 137.624C157.788 137.999 157.641 138.552 157.452 139.266C157.073 140.694 156.521 142.767 155.831 145.352C154.451 150.523 152.514 157.746 150.287 165.962C146 181.774 140.61 201.363 136.039 217.063C148.677 226.355 160.18 239.448 169.596 256.604C173.91 264.467 171.034 274.338 163.172 278.653C155.31 282.967 145.438 280.092 141.123 272.229C136.387 263.598 131.192 256.622 125.768 251.057C123.449 258.545 121.141 265.917 119.03 272.614C116.405 280.943 114.078 288.255 112.407 293.485C111.571 296.1 110.899 298.196 110.436 299.639L110.232 300.275C110.096 300.696 109.986 301.039 109.903 301.298L109.764 301.729L109.728 301.84L109.719 301.868L109.717 301.875L109.716 301.877C109.716 301.877 109.716 301.878 94.2603 296.895C78.8049 291.912 78.805 291.912 78.805 291.912L78.8055 291.91L78.8075 291.904L78.816 291.878L78.8502 291.771L78.9862 291.349C79.1061 290.976 79.2836 290.424 79.5132 289.71C79.9723 288.28 80.6394 286.199 81.4699 283.6C83.1312 278.401 85.445 271.131 88.0544 262.851C90.8929 253.845 94.071 243.676 97.1351 233.692C94.2051 232.923 91.321 232.434 88.517 232.188C70.7458 230.628 54.4542 238.538 45.6194 250.917C35.8969 264.54 29.2422 290.73 36.207 312.389C39.5091 322.658 45.8498 331.93 56.7359 338.84C67.8114 345.87 84.6845 351.131 109.982 351.131C144.341 351.131 170.232 341.854 189.883 327.62C209.684 313.278 224.092 293.211 234.16 270.309C254.5 224.036 256.029 168.596 250.125 134.998C245.948 111.222 235.224 95.9017 222.119 86.6053C208.769 77.1346 191.624 72.9971 173.437 74.2145ZM94.2603 296.895L109.716 301.877C106.964 310.413 97.8131 315.103 89.2773 312.351C80.7415 309.599 76.053 300.448 78.805 291.912L94.2603 296.895ZM142.339 132.901L126.639 128.753C128.93 120.082 137.816 114.91 146.487 117.201C155.158 119.492 160.33 128.379 158.039 137.05L142.339 132.901ZM777.328 157.407C770.502 172.615 768.543 194.242 772.457 212.138C776.634 231.235 785.054 238.186 792.586 238.681C803.341 239.387 813.421 234.768 822.206 225.431C831.128 215.948 837.89 202.309 840.935 187.863C844.002 173.314 842.948 159.714 838.452 149.987C834.33 141.07 827.07 134.584 814.26 132.859C802.372 131.258 794.068 135.383 786.123 144.678C783.011 148.318 780.113 152.59 777.328 157.407ZM327.489 120.963C327.489 130.125 334.917 137.552 344.079 137.552C353.241 137.552 360.668 130.125 360.668 120.963C360.668 111.801 353.241 104.373 344.079 104.373C334.917 104.373 327.489 111.801 327.489 120.963ZM392.751 260.203C400.646 264.562 409.807 268.794 418.783 270.862C426.318 272.599 432.237 272.439 436.632 270.825C440.494 269.407 444.9 266.261 448.683 258.114C455.449 243.541 455.98 212.271 435.702 182.944C421.616 210.847 407.547 238.113 392.751 260.203Z" fill="black"/>
</svg>
